<svg width="82" height="26" viewBox="0 0 82 26" fill="none" xmlns="http://www.w3.org/2000/svg">
<g clip-path="url(#clip0_0_176)">
<path d="M4.05216 24.6504H78.5109C78.5111 24.6504 78.5113 24.6504 78.5115 24.6504C79.3044 24.6503 80.0288 24.3256 80.5558 23.8002C81.0801 23.2756 81.4058 22.5515 81.4058 21.7568V3.88676C81.4058 3.09388 81.0807 2.36944 80.554 1.84224C80.554 1.84222 80.554 1.8422 80.554 1.84219M4.05216 24.6504L1.71992 1.55513C2.31959 0.956084 3.1462 0.583984 4.05216 0.583984H78.5115C79.4181 0.583984 80.2441 0.956084 80.8426 1.5539L80.554 1.84219M4.05216 24.6504C3.25921 24.6504 2.53529 24.3252 2.00929 23.8003C1.4837 23.2758 1.15791 22.5522 1.15791 21.7568V3.88614C1.15791 3.09386 1.48306 2.36948 2.00835 1.84357M4.05216 24.6504L2.00835 1.84357M80.554 1.84219C80.028 1.31695 79.3043 0.99189 78.5115 0.99189H4.05216C3.25999 0.99189 2.53558 1.31696 2.00835 1.84357M80.554 1.84219L2.00835 1.84357" stroke="white" stroke-width="0.815812"/>
<path d="M15.9941 12.811C15.9781 11.0975 17.397 10.2635 17.4616 10.2241C16.6584 9.05308 15.4129 8.89255 14.9756 8.88025C13.9294 8.77077 12.9158 9.50636 12.3826 9.50636C11.8494 9.50636 11.0191 8.89132 10.1352 8.90977C8.99741 8.92761 7.93277 9.58632 7.3491 10.6091C6.14485 12.6947 7.04281 15.7601 8.19724 17.4453C8.77415 18.2719 9.44946 19.1939 10.332 19.1607C11.1962 19.125 11.5191 18.6096 12.5622 18.6096C13.6053 18.6096 13.8981 19.1607 14.7991 19.1398C15.726 19.1244 16.3103 18.3101 16.8675 17.4767C17.5348 16.5301 17.803 15.5983 17.8134 15.5504C17.7919 15.543 16.0126 14.8646 15.9954 12.8104L15.9941 12.811Z" fill="white"/>
<path d="M14.2916 7.77183C14.756 7.19061 15.074 6.40029 14.986 5.59766C14.3132 5.62718 13.4724 6.06263 12.9884 6.63154C12.5597 7.13219 12.1765 7.95326 12.2755 8.72514C13.0308 8.78173 13.807 8.34382 14.2916 7.77183Z" fill="white"/>
<path d="M24.2719 16.1056H26.609L25.4571 12.7131H25.4251L24.2725 16.1056H24.2719ZM26.9147 17.0706H23.9662L23.2583 19.1612H22.0098L24.8027 11.4258H26.1004L28.8933 19.1612H27.6232L26.916 17.0706H26.9147Z" fill="white"/>
<path d="M33.7359 16.3432C33.7359 15.2017 33.1461 14.4508 32.2457 14.4508C31.3452 14.4508 30.7665 15.2171 30.7665 16.3432C30.7665 17.4694 31.3612 18.2406 32.2457 18.2406C33.1301 18.2406 33.7359 17.4952 33.7359 16.3432ZM34.926 16.3432C34.926 18.0961 33.9881 19.2216 32.5722 19.2216C31.7684 19.2216 31.1306 18.8624 30.7979 18.2351H30.7708V21.0286H29.6133V13.5239H30.7339V14.4618H30.7554C31.0771 13.8566 31.7635 13.4648 32.5513 13.4648C33.9825 13.4648 34.926 14.5965 34.926 16.3439V16.3432Z" fill="white"/>
<path d="M39.9416 16.3432C39.9416 15.2017 39.3518 14.4508 38.4514 14.4508C37.5509 14.4508 36.9722 15.2171 36.9722 16.3432C36.9722 17.4694 37.5669 18.2406 38.4514 18.2406C39.3358 18.2406 39.9416 17.4952 39.9416 16.3432ZM41.1311 16.3432C41.1311 18.0961 40.1931 19.2216 38.7773 19.2216C37.9741 19.2216 37.3357 18.8624 37.0029 18.2351H36.9759V21.0286H35.8184V13.5239H36.939V14.4618H36.9605C37.2822 13.8566 37.9685 13.4648 38.7558 13.4648C40.187 13.4648 41.1305 14.5965 41.1305 16.3439L41.1311 16.3432Z" fill="white"/>
<path d="M45.234 17.0057C45.3195 17.7726 46.0649 18.2764 47.0834 18.2764C48.102 18.2764 48.7613 17.7726 48.7613 17.0807C48.7613 16.4804 48.3381 16.1206 47.335 15.8746L46.3325 15.6329C44.9117 15.2897 44.2524 14.6255 44.2524 13.5479C44.2524 12.2133 45.4155 11.2969 47.0668 11.2969C48.7182 11.2969 49.8216 12.2139 49.8597 13.5479H48.6912C48.621 12.776 47.9832 12.3098 47.0502 12.3098C46.1172 12.3098 45.4794 12.7816 45.4794 13.4674C45.4794 14.0141 45.8872 14.3364 46.8842 14.5824L47.736 14.7915C49.3234 15.1673 49.9827 15.8045 49.9827 16.9356C49.9827 18.3828 48.8302 19.2893 46.9967 19.2893C45.2814 19.2893 44.1232 18.4043 44.0488 17.0051H45.234V17.0057Z" fill="white"/>
<path d="M52.4809 12.1881V13.5228H53.5536V14.4392H52.4809V17.5482C52.4809 18.031 52.6956 18.2561 53.1673 18.2561C53.2854 18.2561 53.4736 18.2395 53.548 18.2291V19.1405C53.4201 19.1731 53.1624 19.1941 52.9053 19.1941C51.7632 19.1941 51.3179 18.7654 51.3179 17.6712V14.4386H50.498V13.5221H51.3179V12.1875H52.4809V12.1881Z" fill="white"/>
<path d="M58.3464 16.3426C58.3464 15.1254 57.7885 14.4071 56.8506 14.4071C55.9127 14.4071 55.3554 15.131 55.3554 16.3426C55.3554 17.5542 55.9127 18.2775 56.8506 18.2775C57.7885 18.2775 58.3464 17.5647 58.3464 16.3426ZM54.1758 16.3426C54.1758 14.5682 55.2207 13.4531 56.8506 13.4531C58.4805 13.4531 59.526 14.5682 59.526 16.3426C59.526 18.117 58.4909 19.2321 56.8506 19.2321C55.2103 19.2321 54.1758 18.1219 54.1758 16.3426Z" fill="white"/>
<path d="M60.4805 13.5219H61.5845V14.482H61.6115C61.788 13.8436 62.3028 13.4629 62.9677 13.4629C63.1338 13.4629 63.2728 13.485 63.3644 13.5066V14.589C63.2728 14.5509 63.0692 14.5189 62.8441 14.5189C62.0993 14.5189 61.638 15.0233 61.638 15.8167V19.1619H60.4805V13.5225V13.5219Z" fill="white"/>
<path d="M64.7874 15.8223H67.6067C67.5797 14.9587 67.028 14.3911 66.2241 14.3911C65.4203 14.3911 64.8471 14.9704 64.788 15.8223H64.7874ZM68.7003 17.5056C68.5447 18.5297 67.5477 19.2321 66.2721 19.2321C64.6312 19.2321 63.6133 18.133 63.6133 16.369C63.6133 14.6051 64.6373 13.4531 66.2241 13.4531C67.8109 13.4531 68.7655 14.5251 68.7655 16.235V16.6317H64.7819V16.7018C64.7819 17.6662 65.3883 18.299 66.2992 18.299C66.9419 18.299 67.4462 17.9934 67.6018 17.5056H68.7003Z" fill="white"/>
<path d="M24.2858 8.07741V6.8215L25.5891 4.75988H25.1481L24.0865 6.466L23.025 4.75988H22.584L23.8873 6.8215V8.07741H24.2852H24.2858ZM27.2909 5.80237V7.32829C27.139 7.55586 26.888 7.78342 26.5516 7.78342C26.1537 7.78342 25.9403 7.58415 25.9403 7.15792V5.80237H25.5614V7.20528C25.5614 7.76005 25.9169 8.13399 26.5092 8.13399C26.8739 8.13399 27.1777 7.93964 27.329 7.74037V8.0768H27.6704V5.80176H27.2909V5.80237ZM30.4762 8.07741L29.5094 6.93528L30.3723 5.80237H29.9313L29.2111 6.75015H28.7516V4.75926H28.3721V8.0768H28.7516V7.10011H29.1969L30.0309 8.0768H30.4762V8.07741ZM30.8508 4.61719V8.07741H31.2302V4.61719H30.8508ZM33.8417 7.69793V8.0768H34.1831V5.80176H33.8417V6.18062C33.6381 5.94814 33.3583 5.74456 32.9222 5.74456C32.2727 5.74456 31.785 6.25627 31.785 6.93897C31.785 7.62166 32.2733 8.13338 32.9222 8.13338C33.3583 8.13338 33.6381 7.9298 33.8417 7.69731V7.69793ZM32.1639 6.93958C32.1639 6.41803 32.5243 6.09575 32.9647 6.09575C33.3724 6.09575 33.6756 6.36083 33.8036 6.65482V7.22373C33.6756 7.51772 33.3724 7.78281 32.9647 7.78281C32.5237 7.78281 32.1639 7.46052 32.1639 6.93897V6.93958ZM34.8842 4.75926V8.0768H35.2255V7.69793C35.4291 7.93042 35.709 8.13399 36.145 8.13399C36.7945 8.13399 37.2822 7.62228 37.2822 6.93958C37.2822 6.25689 36.7939 5.74517 36.145 5.74517C35.709 5.74517 35.4291 5.94875 35.2637 6.14311V4.75926H34.8842ZM36.9034 6.93958C36.9034 7.46114 36.543 7.78342 36.1026 7.78342C35.6948 7.78342 35.3916 7.51772 35.2637 7.22435V6.65543C35.3916 6.36144 35.6948 6.09636 36.1026 6.09636C36.5436 6.09636 36.9034 6.41864 36.9034 6.9402V6.93958ZM38.8512 6.93958C38.8512 7.717 39.4484 8.13399 40.0647 8.13399C40.681 8.13399 41.2782 7.717 41.2782 6.93958C41.2782 6.16217 40.6859 5.74517 40.0647 5.74517C39.4435 5.74517 38.8512 6.16217 38.8512 6.93958ZM40.8987 6.93958C40.8987 7.46544 40.529 7.77358 40.0647 7.77358C39.6003 7.77358 39.2307 7.46544 39.2307 6.93958C39.2307 6.41372 39.6003 6.10559 40.0647 6.10559C40.529 6.10559 40.8987 6.41372 40.8987 6.93958ZM41.8323 4.61719V8.07741H42.2112V4.61719H41.8323ZM42.932 5.80237V8.07741H43.3115V5.80237H42.932ZM42.8182 5.20025C42.8182 5.38537 42.9511 5.48009 43.1024 5.48009C43.2537 5.48009 43.3865 5.38537 43.3865 5.20025C43.3865 5.01512 43.2586 4.92532 43.1024 4.92532C42.9462 4.92532 42.8182 5.02004 42.8182 5.20025ZM44.3632 6.1388V5.80237H44.0219V8.07741H44.4014V6.55149C44.5533 6.32393 44.8042 6.09636 45.1406 6.09636C45.4771 6.09636 45.752 6.29564 45.752 6.72186V8.07741H46.1315V6.6745C46.1315 6.11973 45.7286 5.74579 45.1837 5.74579C44.819 5.74579 44.5151 5.94014 44.3638 6.13942L44.3632 6.1388ZM46.6481 6.93958C46.6481 7.62228 47.1364 8.13399 47.7853 8.13399C48.2214 8.13399 48.5012 7.93042 48.6667 7.72622V8.0768C48.6716 8.64079 48.2404 8.82592 47.7564 8.82592C47.4433 8.82592 47.15 8.74535 46.8794 8.59343V8.96307C47.1494 9.10084 47.4673 9.17649 47.8038 9.17649C48.4342 9.17649 49.0455 8.85913 49.0455 8.0768V5.80176H48.7042V6.18062C48.5006 5.94814 48.2208 5.74456 47.7847 5.74456C47.1352 5.74456 46.6475 6.25627 46.6475 6.93897L46.6481 6.93958ZM48.6673 6.65543V7.27171C48.5394 7.5374 48.2361 7.78342 47.8284 7.78342C47.3874 7.78342 47.0276 7.46114 47.0276 6.93958C47.0276 6.41803 47.388 6.09575 47.8284 6.09575C48.2361 6.09575 48.5394 6.36083 48.6673 6.65482V6.65543Z" fill="white"/>
</g>
<defs>
<clipPath id="clip0_0_176">
<rect width="81.0643" height="24.4743" fill="white" transform="translate(0.75 0.583984)"/>
</clipPath>
</defs>
</svg>
