<svg width="40" height="40" viewBox="0 0 40 40" fill="none" xmlns="http://www.w3.org/2000/svg">
<path d="M30.835 5.83203L5.83496 30.8337L9.16163 34.1604L34.1616 9.16036L30.835 5.83203Z" fill="#004D7E"/>
<path fill-rule="evenodd" clip-rule="evenodd" d="M29.006 23C29.7939 23.0008 30.574 23.1568 31.3016 23.459C32.0293 23.7613 32.6903 24.2039 33.2469 24.7616C33.8035 25.3193 34.2448 25.9812 34.5456 26.7094C34.8464 27.4377 35.0008 28.2181 35 29.006C34.9992 29.7939 34.8432 30.574 34.541 31.3016C34.2387 32.0293 33.7961 32.6903 33.2384 33.2469C32.6807 33.8035 32.0188 34.2448 31.2906 34.5456C30.5623 34.8464 29.7819 35.0008 28.994 35C27.4027 34.9984 25.8772 34.3647 24.7531 33.2384C23.629 32.1121 22.9984 30.5853 23 28.994C23.0016 27.4027 23.6353 25.8772 24.7616 24.7531C25.8879 23.629 27.4147 22.9984 29.006 23ZM27.5858 27.5858C27.9609 27.2107 28.4696 27 29 27C29.5304 27 30.0391 27.2107 30.4142 27.5858C30.7893 27.9609 31 28.4696 31 29C31 29.5304 30.7893 30.0391 30.4142 30.4142C30.0391 30.7893 29.5304 31 29 31C28.4696 31 27.9609 30.7893 27.5858 30.4142C27.2107 30.0391 27 29.5304 27 29C27 28.4696 27.2107 27.9609 27.5858 27.5858Z" fill="#004D7E"/>
<path fill-rule="evenodd" clip-rule="evenodd" d="M11.006 5C11.7939 5.00079 12.574 5.15676 13.3016 5.45902C14.0293 5.76128 14.6903 6.2039 15.2469 6.7616C15.8035 7.31931 16.2448 7.98119 16.5456 8.70944C16.8464 9.4377 17.0008 10.2181 17 11.006C16.9992 11.7939 16.8432 12.574 16.541 13.3016C16.2387 14.0293 15.7961 14.6903 15.2384 15.2469C14.6807 15.8035 14.0188 16.2448 13.2906 16.5456C12.5623 16.8464 11.7819 17.0008 10.994 17C9.4027 16.9984 7.87721 16.3647 6.75312 15.2384C5.62903 14.1121 4.99841 12.5853 5 10.994C5.00159 9.4027 5.63526 7.87721 6.7616 6.75312C7.88795 5.62903 9.4147 4.99841 11.006 5ZM9.58579 9.58579C9.96086 9.21071 10.4696 9 11 9C11.5304 9 12.0391 9.21071 12.4142 9.58579C12.7893 9.96086 13 10.4696 13 11C13 11.5304 12.7893 12.0391 12.4142 12.4142C12.0391 12.7893 11.5304 13 11 13C10.4696 13 9.96086 12.7893 9.58579 12.4142C9.21071 12.0391 9 11.5304 9 11C9 10.4696 9.21071 9.96086 9.58579 9.58579Z" fill="#004D7E"/>
</svg>
