<svg width="39" height="35" viewBox="0 0 39 35" fill="none" xmlns="http://www.w3.org/2000/svg">
<path d="M9 27.3205C7.75 26.0705 6.77111 24.6261 6.06333 22.9872C5.35444 21.3483 5 19.6538 5 17.9038C5 16.1538 5.33333 14.4244 6 12.7155C6.66667 11.0077 7.75 9.40385 9.25 7.90385C10.2222 6.93162 11.4239 6.09829 12.855 5.40385C14.285 4.7094 15.9789 4.16051 17.9367 3.75718C19.8956 3.35496 22.1322 3.11218 24.6467 3.02885C27.16 2.94551 29.9722 3.04273 33.0833 3.32051C33.3056 6.26496 33.375 8.97329 33.2917 11.4455C33.2083 13.9177 32.9789 16.1466 32.6033 18.1322C32.2289 20.1188 31.7017 21.855 31.0217 23.3405C30.3406 24.8272 29.5 26.0705 28.5 27.0705C27.0278 28.5427 25.4656 29.6188 23.8133 30.2988C22.16 30.98 20.4722 31.3205 18.75 31.3205C16.9444 31.3205 15.1806 30.9666 13.4583 30.2588C11.7361 29.55 10.25 28.5705 9 27.3205ZM13.6667 26.6538C14.4722 27.1261 15.2989 27.4661 16.1467 27.6738C16.9933 27.8827 17.8611 27.9872 18.75 27.9872C20.0278 27.9872 21.2917 27.7305 22.5417 27.2172C23.7917 26.7027 24.9861 25.8761 26.125 24.7372C26.625 24.2372 27.1317 23.5361 27.645 22.6338C28.1594 21.7305 28.6044 20.5494 28.98 19.0905C29.3544 17.6327 29.6389 15.8694 29.8333 13.8005C30.0278 11.7305 30.0556 9.26496 29.9167 6.40385C28.5556 6.34829 27.0211 6.32718 25.3133 6.34051C23.6044 6.35496 21.9028 6.48718 20.2083 6.73718C18.5139 6.98718 16.9028 7.38996 15.375 7.94551C13.8472 8.50107 12.5972 9.26496 11.625 10.2372C10.375 11.4872 9.51389 12.7233 9.04167 13.9455C8.56944 15.1677 8.33333 16.3483 8.33333 17.4872C8.33333 19.1261 8.64555 20.5633 9.27 21.7988C9.89555 23.0355 10.4444 23.9038 10.9167 24.4038C12.0833 22.1816 13.625 20.0494 15.5417 18.0072C17.4583 15.9661 19.6944 14.2927 22.25 12.9872C20.25 14.7372 18.5072 16.7161 17.0217 18.9238C15.535 21.1327 14.4167 23.7094 13.6667 26.6538Z" fill="#004D7E"/>
</svg>
