<svg width="40" height="40" viewBox="0 0 40 40" fill="none" xmlns="http://www.w3.org/2000/svg">
<path d="M0 32.0455C0 32.387 0.15051 32.7146 0.418419 32.9561C0.686328 33.1976 1.04969 33.3333 1.42857 33.3333H38.5714C38.9503 33.3333 39.3137 33.1976 39.5816 32.9561C39.8495 32.7146 40 32.387 40 32.0455V16.4299H0V32.0455ZM5.89286 20.9375C5.89286 20.7667 5.96811 20.6029 6.10207 20.4822C6.23602 20.3614 6.4177 20.2936 6.60714 20.2936H14.8214C15.0109 20.2936 15.1926 20.3614 15.3265 20.4822C15.4605 20.6029 15.5357 20.7667 15.5357 20.9375V26.089C15.5357 26.2598 15.4605 26.4236 15.3265 26.5444C15.1926 26.6651 15.0109 26.733 14.8214 26.733H6.60714C6.4177 26.733 6.23602 26.6651 6.10207 26.5444C5.96811 26.4236 5.89286 26.2598 5.89286 26.089V20.9375ZM38.5714 5H1.42857C1.04969 5 0.686328 5.13569 0.418419 5.37721C0.15051 5.61874 0 5.94631 0 6.28788V11.6004H40V6.28788C40 5.94631 39.8495 5.61874 39.5816 5.37721C39.3137 5.13569 38.9503 5 38.5714 5Z" fill="#004D7E"/>
</svg>
