<svg width="36" height="37" viewBox="0 0 36 37" fill="none" xmlns="http://www.w3.org/2000/svg">
<path d="M17.609 34.399C8.85587 34.399 1.76003 27.3027 1.76003 18.5491C1.76003 9.79549 8.85587 2.69928 17.609 2.69928C26.3622 2.69928 33.458 9.79549 33.458 18.5491C33.458 27.3027 26.3622 34.399 17.609 34.399Z" fill="#0035F2"/>
<path d="M1.23664 18.5491C1.23664 27.5918 8.56678 34.9223 17.609 34.9223C26.6513 34.9223 33.9814 27.5918 33.9814 18.5491C33.9814 9.50646 26.6513 2.17589 17.609 2.17589C8.56678 2.17589 1.23664 9.50646 1.23664 18.5491Z" stroke="#9593A7" stroke-opacity="0.2" stroke-width="1.04678"/>
<path d="M17.609 34.399C8.85587 34.399 1.76003 27.3027 1.76003 18.5491C1.76003 9.79549 8.85587 2.69928 17.609 2.69928C26.3622 2.69928 33.458 9.79549 33.458 18.5491C33.458 27.3027 26.3622 34.399 17.609 34.399Z" fill="#0035F2"/>
<path d="M17.4931 11.3514L15.9256 12.1249L16.4416 10.5905L15.3888 9.57441L16.9602 9.56679L17.578 7.98047L18.2697 9.56044L19.5792 9.5541L18.5368 10.5804L19.0684 12.1097L17.4931 11.3514Z" fill="#FFDB44"/>
<path d="M17.4931 25.7427L15.9256 24.9692L16.4416 26.5035L15.3888 27.5196L16.9602 27.5273L17.578 29.1136L18.2697 27.5336L19.5792 27.54L18.5368 26.5137L19.0684 24.9844L17.4931 25.7427Z" fill="#FFDB44"/>
<path d="M24.774 18.5231L23.6718 17.1894L25.3187 17.3623L26.1193 16.1471L26.4538 17.6439L28.174 17.903L26.7325 18.8911L27.0112 20.1384L25.7646 19.358L24.3407 20.1829L24.774 18.5231Z" fill="#FFDB44"/>
<path d="M22.8287 13.7582L21.1047 13.4286L22.4795 12.5279L22.2903 11.0955L23.5342 12.0315L25.0221 11.1509L24.5709 12.8115L25.6075 13.5915L24.1381 13.7759L23.5926 15.3005L22.8287 13.7582Z" fill="#FFDB44"/>
<path d="M22.8518 23.3657L23.6007 21.8164L24.161 23.336L25.6321 23.5069L24.3972 24.4543L24.9099 26.0758L23.3682 25.2437L22.3392 26.0332L22.5145 24.5991L21.131 23.7112L22.8518 23.3657Z" fill="#FFDB44"/>
<path d="M24.774 18.5231L23.6718 17.1894L25.3187 17.3623L26.1193 16.1471L26.4538 17.6439L28.174 17.903L26.7325 18.8911L27.0112 20.1384L25.7646 19.358L24.3407 20.1829L24.774 18.5231Z" fill="#FFDB44"/>
<path d="M10.442 18.5231L11.5442 17.1894L9.89727 17.3623L9.09664 16.1471L8.76219 17.6439L7.04199 17.903L8.48348 18.8911L8.20477 20.1384L9.45134 19.358L10.8753 20.1829L10.442 18.5231Z" fill="#FFDB44"/>
<path d="M12.3873 13.7582L14.1113 13.4286L12.7365 12.5279L12.9257 11.0955L11.6817 12.0315L10.1939 11.1509L10.6451 12.8115L9.60847 13.5915L11.0779 13.7759L11.6234 15.3005L12.3873 13.7582Z" fill="#FFDB44"/>
<path d="M12.3642 23.3657L11.6152 21.8164L11.055 23.336L9.58389 23.5069L10.8187 24.4543L10.3061 26.0758L11.8478 25.2437L12.8768 26.0332L12.7015 24.5991L14.0849 23.7112L12.3642 23.3657Z" fill="#FFDB44"/>
<path d="M10.442 18.5231L11.5442 17.1894L9.89727 17.3623L9.09664 16.1471L8.76219 17.6439L7.04199 17.903L8.48348 18.8911L8.20477 20.1384L9.45134 19.358L10.8753 20.1829L10.442 18.5231Z" fill="#FFDB44"/>
</svg>
