<svg width="82" height="26" viewBox="0 0 82 26" fill="none" xmlns="http://www.w3.org/2000/svg">
<g clip-path="url(#clip0_0_192)">
<path d="M78.2912 24.6499V24.6504H4.23995C3.44712 24.6504 2.72259 24.3253 2.19701 23.8002L2.19687 23.8001C1.67144 23.2757 1.34541 22.5519 1.34541 21.757V3.88643C1.34541 3.09367 1.67044 2.36919 2.19545 1.84363C2.72282 1.31682 3.44733 0.99189 4.23995 0.99189H78.6991C79.4919 0.99189 80.2164 1.31699 80.742 1.84207C81.2687 2.36943 81.5936 3.09389 81.5936 3.88643V21.7564C81.5936 22.5512 81.2682 23.2749 80.7441 23.7993C80.2166 24.3248 79.4918 24.6499 78.6991 24.6499H78.2912Z" stroke="white" stroke-width="0.815812"/>
<path d="M6.96263 5.14445C6.78825 5.32842 6.68555 5.61454 6.68555 5.98586V19.2295C6.68555 19.6003 6.78825 19.8864 6.96263 20.0709L7.00665 20.1144L14.4253 12.6952V12.5202L7.00665 5.10156L6.96263 5.14502V5.14445Z" fill="white"/>
<path fill-rule="evenodd" clip-rule="evenodd" d="M17.0975 10.0057L8.34981 5.0351C7.83684 4.74391 7.38143 4.78002 7.10547 5.07178L14.5681 12.535L17.0975 10.0057Z" fill="white"/>
<path d="M64.9412 18.5988H66.0597V11.1068H64.9412V18.5988ZM75.0139 13.8054L73.7317 17.0537H73.6933L72.3626 13.8054H71.1578L73.1527 18.3455L72.0156 20.8708H73.1826L76.2571 13.8054H75.0133H75.0139ZM68.6719 17.7478C68.3051 17.7478 67.7944 17.5644 67.7944 17.1113C67.7944 16.5328 68.431 16.3116 68.9801 16.3116C69.4721 16.3116 69.703 16.4177 70.0021 16.5622C69.9151 17.2557 69.3175 17.7478 68.6725 17.7478H68.6719ZM68.8068 13.6418C67.997 13.6418 67.159 13.9984 66.8119 14.7891L67.8046 15.2038C68.0167 14.7891 68.4118 14.6542 68.8266 14.6542C69.405 14.6542 69.993 15.0012 70.0026 15.6181V15.6948C69.8 15.5791 69.3666 15.4059 68.8362 15.4059C67.7662 15.4059 66.677 15.9939 66.677 17.0926C66.677 18.0949 67.5546 18.741 68.5371 18.741C69.2893 18.741 69.7035 18.4036 69.9642 18.0085H70.0026V18.587H71.0816V15.7146C71.0816 14.3844 70.089 13.6423 68.8074 13.6423L68.8068 13.6418ZM61.8955 14.7174H60.3046V12.1491H61.8955C62.7313 12.1491 63.2064 12.8416 63.2064 13.4335C63.2064 14.0255 62.7318 14.7174 61.8955 14.7174ZM61.8667 11.1063H59.1873V18.5983H60.3052V15.7597H61.8673C63.1065 15.7597 64.3249 14.8624 64.3249 13.433C64.3249 12.0035 63.1065 11.1063 61.8673 11.1063H61.8667ZM47.2551 17.749C46.4825 17.749 45.8358 17.1022 45.8358 16.214C45.8358 15.3257 46.4825 14.6598 47.2551 14.6598C48.0277 14.6598 48.6163 15.3167 48.6163 16.214C48.6163 17.1113 48.0175 17.749 47.2551 17.749ZM48.5395 14.2247H48.5006C48.2495 13.9256 47.767 13.6553 47.1586 13.6553C45.8844 13.6553 44.7156 14.7755 44.7156 16.214C44.7156 17.6525 45.8838 18.7535 47.1586 18.7535C47.767 18.7535 48.25 18.4831 48.5006 18.1745H48.5395V18.5413C48.5395 19.5164 48.0181 20.0379 47.1778 20.0379C46.4921 20.0379 46.0672 19.5452 45.8934 19.1304L44.9182 19.5362C45.1981 20.2122 45.9419 21.0424 47.1772 21.0424C48.4904 21.0424 49.601 20.2698 49.601 18.3872V13.8105H48.539V14.2253L48.5395 14.2247ZM50.3742 18.5983H51.4938V11.1063H50.3742V18.5988V18.5983ZM53.1456 16.1265C53.1168 15.1418 53.908 14.6395 54.478 14.6395C54.9221 14.6395 55.299 14.8613 55.4238 15.1801L53.1456 16.1259V16.1265ZM56.6213 15.2772C56.4091 14.7072 55.7618 13.6548 54.439 13.6548C53.1162 13.6548 52.035 14.688 52.035 16.2038C52.035 17.6327 53.1162 18.7529 54.5643 18.7529C55.733 18.7529 56.4091 18.0385 56.6884 17.6231L55.8194 17.0435C55.5299 17.4685 55.1337 17.7484 54.5637 17.7484C53.9938 17.7484 53.5886 17.4877 53.3279 16.9758L56.7358 15.5661L56.6201 15.2766L56.6213 15.2772ZM29.4675 14.4369V15.5182H32.0549C31.9776 16.1265 31.775 16.5706 31.4658 16.8799C31.0894 17.2563 30.5002 17.6716 29.4675 17.6716C27.8744 17.6716 26.6289 16.3878 26.6289 14.7947C26.6289 13.2016 27.8744 11.9172 29.4675 11.9172C30.327 11.9172 30.9545 12.2552 31.4178 12.6898L32.1808 11.9273C31.5341 11.3094 30.6746 10.8359 29.4675 10.8359C27.2852 10.8359 25.4512 12.6124 25.4512 14.7947C25.4512 16.977 27.2858 18.7529 29.4675 18.7529C30.6452 18.7529 31.5341 18.3669 32.2288 17.6423C32.9432 16.9279 33.1655 15.9239 33.1655 15.113C33.1655 14.8619 33.1464 14.6299 33.1074 14.4369H29.4675ZM36.1074 17.7484C35.3348 17.7484 34.6689 17.1113 34.6689 16.2033C34.6689 15.2953 35.3354 14.6587 36.1074 14.6587C36.8794 14.6587 37.5459 15.2862 37.5459 16.2033C37.5459 17.1203 36.8794 17.7484 36.1074 17.7484ZM36.1074 13.6548C34.6977 13.6548 33.5487 14.7264 33.5487 16.2038C33.5487 17.6812 34.6977 18.7529 36.1074 18.7529C37.5171 18.7529 38.666 17.6716 38.666 16.2038C38.666 14.736 37.5171 13.6548 36.1074 13.6548ZM41.6891 17.7484C40.9166 17.7484 40.2507 17.1113 40.2507 16.2033C40.2507 15.2953 40.9171 14.6587 41.6891 14.6587C42.4612 14.6587 43.1276 15.2862 43.1276 16.2033C43.1276 17.1203 42.4612 17.7484 41.6891 17.7484ZM41.6891 13.6548C40.2795 13.6548 39.1305 14.7264 39.1305 16.2038C39.1305 17.6812 40.2795 18.7529 41.6891 18.7529C43.0988 18.7529 44.2478 17.6716 44.2478 16.2038C44.2478 14.736 43.0988 13.6548 41.6891 13.6548Z" fill="white"/>
<path fill-rule="evenodd" clip-rule="evenodd" d="M17.1838 15.1687L14.7109 12.6953V12.5203L17.1844 10.0469L17.2403 10.0785L20.1702 11.7432C21.0071 12.219 21.0071 12.9966 20.1702 13.4723L17.2403 15.1371L17.1838 15.1693V15.1687Z" fill="white"/>
<path fill-rule="evenodd" clip-rule="evenodd" d="M17.0975 15.2071L14.5681 12.6777L7.10547 20.141C7.38143 20.4327 7.83684 20.4694 8.34981 20.1777L17.0975 15.2071Z" fill="white"/>
<path d="M27.3298 8.0595V6.80331L28.6334 4.74182H28.1926L27.1311 6.44835L26.0696 4.74182H25.6289L26.9325 6.80331V8.0595H27.3304H27.3298ZM30.3348 5.7847V7.31064C30.183 7.53807 29.9319 7.76549 29.5956 7.76549C29.1977 7.76549 28.9844 7.56628 28.9844 7.13965V5.78413H28.6052V7.18705C28.6052 7.74179 28.9607 8.11594 29.5532 8.11594C29.9184 8.11594 30.2214 7.92181 30.3732 7.7226V8.05894H30.7146V5.78413H30.3354L30.3348 5.7847ZM33.5199 8.0595L32.5532 6.9173L33.4161 5.7847H32.9753L32.2547 6.73277H31.7948V4.74182H31.4155V8.0595H31.7948V7.08322H32.24L33.0741 8.0595H33.5199ZM33.8941 4.59961V8.0595H34.2733V4.59961H33.8941ZM36.885 7.68028V8.0595H37.2264V5.7847H36.885V6.16393C36.6813 5.93142 36.4014 5.7277 35.9657 5.7277C35.3162 5.7277 34.828 6.23955 34.828 6.92238C34.828 7.60522 35.3162 8.1165 35.9657 8.1165C36.4019 8.1165 36.6813 7.91278 36.885 7.68028ZM35.2072 6.92182C35.2072 6.40038 35.5673 6.07815 36.008 6.07815C36.4155 6.07815 36.7191 6.34338 36.8472 6.6374V7.20624C36.7191 7.50026 36.416 7.76549 36.008 7.76549C35.5673 7.76549 35.2072 7.44326 35.2072 6.92182ZM37.9279 4.74182V8.0595H38.2693V7.68028C38.473 7.91278 38.7529 8.1165 39.1886 8.1165C39.8381 8.1165 40.3263 7.60466 40.3263 6.92238C40.3263 6.24011 39.8381 5.7277 39.1886 5.7277C38.7524 5.7277 38.473 5.93142 38.3071 6.12555V4.74182H37.9279ZM39.947 6.92182C39.947 7.44326 39.587 7.76549 39.1463 7.76549C38.7388 7.76549 38.4352 7.50026 38.3071 7.20624V6.6374C38.4352 6.34338 38.7382 6.07815 39.1463 6.07815C39.587 6.07815 39.947 6.40038 39.947 6.92182ZM41.8951 6.92182C41.8951 7.6989 42.4922 8.11594 43.1084 8.11594C43.7246 8.11594 44.3217 7.6989 44.3217 6.92182C44.3217 6.14474 43.7292 5.72714 43.1084 5.72714C42.4876 5.72714 41.8951 6.14417 41.8951 6.92182ZM43.9425 6.92182C43.9425 7.44777 43.5728 7.7559 43.1084 7.7559C42.644 7.7559 42.2743 7.44777 42.2743 6.92182C42.2743 6.39587 42.644 6.08774 43.1084 6.08774C43.5728 6.08774 43.9425 6.39587 43.9425 6.92182ZM44.8764 4.59961V8.0595H45.2557V4.59961H44.8764ZM45.9763 5.7847V8.0595H46.3555V5.7847H45.9763ZM45.8623 5.18256C45.8623 5.36766 45.9949 5.46247 46.1467 5.46247C46.2986 5.46247 46.4312 5.36766 46.4312 5.18256C46.4312 4.99746 46.3031 4.90773 46.1467 4.90773C45.9904 4.90773 45.8623 5.00254 45.8623 5.18256ZM47.4075 6.12104V5.7847H47.066V8.0595H47.4453V6.53356C47.5971 6.30614 47.8482 6.07871 48.1845 6.07871C48.5209 6.07871 48.7957 6.27792 48.7957 6.70455V8.06007H49.1749V6.65715C49.1749 6.10241 48.772 5.72827 48.2269 5.72827C47.8617 5.72827 47.5587 5.92239 47.4069 6.1216L47.4075 6.12104ZM49.6919 6.92182C49.6919 7.60409 50.18 8.11594 50.8295 8.11594C51.2658 8.11594 51.5451 7.91221 51.711 7.70849V8.05894C51.7155 8.6227 51.2844 8.8078 50.8008 8.8078C50.4881 8.8078 50.1941 8.7271 49.9238 8.5753V8.94494C50.1941 9.08263 50.5113 9.15825 50.8482 9.15825C51.4785 9.15825 52.0897 8.84053 52.0897 8.05838V5.78357H51.7483V6.1628C51.5445 5.93029 51.2646 5.72657 50.829 5.72657C50.1794 5.72657 49.6913 6.23842 49.6913 6.92125L49.6919 6.92182ZM51.711 6.6374V7.25364C51.5829 7.51888 51.2799 7.76549 50.8719 7.76549C50.4311 7.76549 50.0711 7.44326 50.0711 6.92182C50.0711 6.40038 50.4311 6.07815 50.8719 6.07815C51.2793 6.07815 51.5829 6.34338 51.711 6.6374Z" fill="white"/>
</g>
<defs>
<clipPath id="clip0_0_192">
<rect width="81.0635" height="24.4743" fill="white" transform="translate(0.9375 0.583984)"/>
</clipPath>
</defs>
</svg>
