<svg width="16" height="17" viewBox="0 0 16 17" fill="none" xmlns="http://www.w3.org/2000/svg">
<path d="M13.7148 2.0657C13.4933 2.0422 13.2524 2.0768 13.0104 2.17247C12.7104 2.29047 8.0096 4.26791 3.6276 6.11257L2.17969 6.72195C1.61902 6.94928 1.33594 7.319 1.33594 7.817C1.33594 8.16567 1.4835 8.63859 2.1875 8.91726L4.63151 9.89643C4.84284 10.5304 5.3337 12.0025 5.45703 12.3938C5.53036 12.6258 5.71559 13.2103 6.18359 13.3469C6.27959 13.3796 6.37977 13.3964 6.48177 13.3964C6.7771 13.3964 6.98975 13.259 7.09375 13.179L8.64714 11.8652L10.5339 13.61C10.6065 13.684 10.9911 14.0579 11.5078 14.0579C12.1525 14.0579 12.6415 13.5212 12.7435 13.0019C12.7988 12.7172 14.6185 3.58259 14.6185 3.58393C14.7818 2.85126 14.4881 2.47119 14.2995 2.30919C14.1378 2.17085 13.9364 2.0892 13.7148 2.0657ZM13.2734 3.5058C13.0221 4.7658 11.652 11.6434 11.444 12.6347L8.6862 10.0839L6.8151 11.6686L7.33333 9.64122C7.33333 9.64122 10.9084 6.02246 11.1237 5.81179C11.297 5.64312 11.3333 5.584 11.3333 5.52533C11.3333 5.44733 11.2932 5.39122 11.2005 5.39122C11.1172 5.39122 11.004 5.47107 10.944 5.50841C10.1818 5.98362 6.93606 7.83271 5.33854 8.74148L3.02083 7.8157L4.14583 7.34304C7.01183 6.13637 12.1161 3.98714 13.2734 3.5058Z" fill="white"/>
</svg>
