<svg width="16" height="17" viewBox="0 0 16 17" fill="none" xmlns="http://www.w3.org/2000/svg">
<path d="M9.39062 1.39062C9.29529 1.39062 9.19823 1.40305 9.10156 1.42839L3.72917 2.86849C3.13583 3.02782 2.78468 3.63714 2.94401 4.23047L5.53385 13.8997C5.66719 14.3964 6.1161 14.724 6.60677 14.724C6.7021 14.724 6.79917 14.7115 6.89583 14.6862L12.2669 13.2461C12.8603 13.0874 13.2121 12.4774 13.0534 11.8841L10.4635 2.21484C10.3302 1.71818 9.88129 1.39062 9.39062 1.39062ZM9.23307 2.77344L9.54687 3.94401L4.60807 5.29427L4.28776 4.09896L9.23307 2.77344ZM13.832 3.61589L12.5443 3.96094L13.9831 9.33333L15.2708 8.98828L13.832 3.61589ZM9.89193 5.23307L11.0456 9.53906L6.10677 10.8893L4.95312 6.58203L9.89193 5.23307ZM2.01432 6.78255L0.726562 7.1276L2.16536 12.4987L3.45312 12.1536L2.01432 6.78255ZM11.3906 10.8281L11.7096 12.0156L6.76432 13.3411L6.45182 12.1771L11.3906 10.8281Z" fill="white"/>
</svg>
