<svg width="16" height="17" viewBox="0 0 16 17" fill="none" xmlns="http://www.w3.org/2000/svg">
<path d="M8.88792 1.39062C8.26726 1.39062 7.64642 1.44844 7.03376 1.5651C4.51376 2.07244 2.2328 3.55898 0.768132 5.73698C0.551465 6.05898 0.715684 6.39903 0.925684 6.54036L2.60928 7.67187C2.70861 7.73854 2.82216 7.77083 2.9335 7.77083C2.97083 7.77083 3.00881 7.76775 3.04548 7.76042C3.18614 7.73308 3.31682 7.65334 3.40615 7.52734C3.61682 7.23001 3.88965 6.86174 4.09365 6.64974C4.31432 6.42041 4.61527 6.16619 4.83193 5.99219C5.00193 5.85552 5.0803 5.63718 5.03896 5.42318L4.71214 3.81641C5.58481 3.34574 6.42451 3.06044 7.25251 2.89844C7.26051 2.8971 7.26794 2.89586 7.27594 2.89453C7.28394 2.8932 7.29268 2.89066 7.30068 2.88932C7.83668 2.78332 8.39612 2.72396 8.99079 2.72396C9.31612 2.72396 9.6519 2.74131 9.9999 2.77865L10.3371 4.38411C10.3798 4.59811 10.536 4.77067 10.7447 4.83333C11.0107 4.91333 11.383 5.03343 11.6744 5.16276C11.943 5.28143 12.3365 5.52015 12.6431 5.71615C12.7398 5.77748 12.847 5.80859 12.953 5.80859C12.9904 5.80859 13.0283 5.80421 13.065 5.79687C13.2103 5.76821 13.3455 5.68345 13.4348 5.55078L14.5663 3.86719C14.709 3.65719 14.7334 3.2811 14.4101 3.0651C12.7607 1.95577 10.8259 1.39062 8.88792 1.39062ZM11.4309 3.10417C11.9816 3.2735 12.5134 3.49801 13.0207 3.77734L12.7304 4.20964C12.5324 4.09697 12.3614 4.00868 12.2147 3.94401C12.0301 3.86201 11.8086 3.77871 11.5533 3.69271L11.4309 3.10417ZM3.52464 4.66927L3.64313 5.2474C3.4438 5.41873 3.27268 5.57866 3.13402 5.72266C3.02135 5.83932 2.89775 5.98473 2.75641 6.16406L2.32542 5.8737C2.68409 5.43236 3.08664 5.02927 3.52464 4.66927ZM5.9999 5.39062V6.72396L3.16787 8.98958C2.8512 9.24225 2.66657 9.62592 2.66657 10.0312V13.3906H1.9999V14.724H13.9999V13.3906H13.3332V10.0312C13.3332 9.62592 13.1486 9.24292 12.8319 8.98958L9.9999 6.72396V5.39062H8.66657V6.72396H7.33324V5.39062H5.9999ZM6.46735 8.05729H9.53245L11.9999 10.0312V13.3906H3.9999V10.0312L6.46735 8.05729ZM5.9999 9.39062C5.82309 9.39062 5.65352 9.46086 5.5285 9.58589C5.40347 9.71091 5.33324 9.88048 5.33324 10.0573C5.33324 10.2341 5.40347 10.4037 5.5285 10.5287C5.65352 10.6537 5.82309 10.724 5.9999 10.724C6.17671 10.724 6.34628 10.6537 6.47131 10.5287C6.59633 10.4037 6.66657 10.2341 6.66657 10.0573C6.66657 9.88048 6.59633 9.71091 6.47131 9.58589C6.34628 9.46086 6.17671 9.39062 5.9999 9.39062ZM7.9999 9.39062C7.82309 9.39062 7.65352 9.46086 7.5285 9.58589C7.40347 9.71091 7.33324 9.88048 7.33324 10.0573C7.33324 10.2341 7.40347 10.4037 7.5285 10.5287C7.65352 10.6537 7.82309 10.724 7.9999 10.724C8.17671 10.724 8.34628 10.6537 8.47131 10.5287C8.59633 10.4037 8.66657 10.2341 8.66657 10.0573C8.66657 9.88048 8.59633 9.71091 8.47131 9.58589C8.34628 9.46086 8.17671 9.39062 7.9999 9.39062ZM9.9999 9.39062C9.82309 9.39062 9.65352 9.46086 9.5285 9.58589C9.40347 9.71091 9.33324 9.88048 9.33324 10.0573C9.33324 10.2341 9.40347 10.4037 9.5285 10.5287C9.65352 10.6537 9.82309 10.724 9.9999 10.724C10.1767 10.724 10.3463 10.6537 10.4713 10.5287C10.5963 10.4037 10.6666 10.2341 10.6666 10.0573C10.6666 9.88048 10.5963 9.71091 10.4713 9.58589C10.3463 9.46086 10.1767 9.39062 9.9999 9.39062ZM5.9999 11.3906C5.82309 11.3906 5.65352 11.4609 5.5285 11.5859C5.40347 11.7109 5.33324 11.8805 5.33324 12.0573C5.33324 12.2341 5.40347 12.4037 5.5285 12.5287C5.65352 12.6537 5.82309 12.724 5.9999 12.724C6.17671 12.724 6.34628 12.6537 6.47131 12.5287C6.59633 12.4037 6.66657 12.2341 6.66657 12.0573C6.66657 11.8805 6.59633 11.7109 6.47131 11.5859C6.34628 11.4609 6.17671 11.3906 5.9999 11.3906ZM7.9999 11.3906C7.82309 11.3906 7.65352 11.4609 7.5285 11.5859C7.40347 11.7109 7.33324 11.8805 7.33324 12.0573C7.33324 12.2341 7.40347 12.4037 7.5285 12.5287C7.65352 12.6537 7.82309 12.724 7.9999 12.724C8.17671 12.724 8.34628 12.6537 8.47131 12.5287C8.59633 12.4037 8.66657 12.2341 8.66657 12.0573C8.66657 11.8805 8.59633 11.7109 8.47131 11.5859C8.34628 11.4609 8.17671 11.3906 7.9999 11.3906ZM9.9999 11.3906C9.82309 11.3906 9.65352 11.4609 9.5285 11.5859C9.40347 11.7109 9.33324 11.8805 9.33324 12.0573C9.33324 12.2341 9.40347 12.4037 9.5285 12.5287C9.65352 12.6537 9.82309 12.724 9.9999 12.724C10.1767 12.724 10.3463 12.6537 10.4713 12.5287C10.5963 12.4037 10.6666 12.2341 10.6666 12.0573C10.6666 11.8805 10.5963 11.7109 10.4713 11.5859C10.3463 11.4609 10.1767 11.3906 9.9999 11.3906Z" fill="white"/>
</svg>
