<svg width="29" height="24" viewBox="0 0 29 24" fill="none" xmlns="http://www.w3.org/2000/svg">
<g clip-path="url(#clip0_0_107)">
<path d="M28.5583 9.28988C28.2822 8.56979 27.7154 7.92691 27.0255 7.46336C25.0337 6.20663 21.9984 6.11713 19.9461 7.25328C18.8269 7.82033 18.0912 8.94247 17.8623 10.0981C17.447 11.9967 17.5543 14.2557 19.0262 15.6788C20.7426 17.1739 23.2407 17.5042 25.4621 16.8901C25.5676 16.8699 25.9021 16.7862 26.1327 16.6646L26.1977 16.6369C26.8876 16.352 27.5456 15.8882 28.0368 15.26C29.1705 13.6128 29.2482 11.1447 28.5583 9.28988ZM24.9416 13.5533C24.8632 13.9134 24.6195 14.2864 24.2352 14.4217C23.6233 14.6892 22.7955 14.615 22.2287 14.3021C21.7533 13.9718 21.6921 13.4188 21.6309 12.8954C21.5845 11.8638 21.5095 10.7714 21.8004 9.82823C22.0283 9.2441 22.657 9.0938 23.2256 9.04973C23.8227 9.04973 24.404 9.14026 24.7728 9.61883C25.0025 9.96214 24.9884 10.4113 25.0337 10.8158C25.0176 11.6681 25.0946 12.6847 24.9416 13.5533ZM6.78198 14.4825C6.27597 14.4517 5.70911 14.4958 5.21926 14.436L5.23438 9.18296L5.26532 9.13923L6.78198 9.12454C6.79779 8.27192 6.81291 7.35746 6.76616 6.58033L0.99002 6.56428L0.0388449 6.58067C0.0237196 7.37318 0.0237196 8.29993 0.0388449 9.10883C0.560324 9.12488 1.04983 9.10883 1.55584 9.15563V14.243L1.54106 14.4521L0.0237196 14.4828C-0.00790652 15.3055 -0.00790652 16.1292 0.0237196 16.9519H6.78163L6.78198 14.4825ZM23.7911 18.073C23.1482 18.9868 22.3359 19.8695 21.449 20.5561C21.4167 20.6029 21.3249 20.5851 21.2957 20.5421C20.9114 20.3033 20.4979 20.1079 20.1294 19.8695C20.6202 19.2864 21.0957 18.7029 21.4635 18.0569H20.9867C20.6058 18.6127 20.2064 19.1958 19.701 19.6881C19.0262 19.4192 18.4137 19.1801 17.7241 18.9991L17.6474 18.942C17.7547 18.6397 17.9534 18.3558 18.0142 18.0563H17.6007L17.1871 18.8648C16.2841 18.6705 15.2875 18.5646 14.368 18.5055C14.3216 18.3712 14.3824 18.1765 14.3216 18.0563H13.9232C13.8916 18.2363 13.9692 18.3719 13.8771 18.5212C12.927 18.5646 12.0078 18.6705 11.1198 18.8518L10.7046 18.0563C10.553 18.0563 10.3825 18.0276 10.2766 18.0723L10.6589 18.9553L10.6131 18.9991C9.92634 19.1965 9.25108 19.4317 8.59048 19.7034L8.52964 19.6727C8.0996 19.2088 7.68571 18.7022 7.34814 18.1932C7.27217 17.9374 6.96554 18.087 6.79676 18.0569C7.1632 18.7162 7.65512 19.299 8.14463 19.8985C7.73109 20.1386 7.31892 20.4065 6.88785 20.6029C5.95049 19.8935 5.13337 19.0396 4.46746 18.0737C4.28321 18.0443 4.16186 18.0576 3.97658 18.0737C5.08004 19.7796 6.79676 21.2755 8.58979 22.1585C8.58979 22.1585 8.58979 22.1452 8.60629 22.1452C8.61936 22.1452 8.64995 22.1728 8.61936 22.1886C9.83075 22.7723 11.1188 23.1911 12.4815 23.3715C17.1865 23.9843 21.677 21.9952 24.2806 18.0737C24.1178 18.057 23.9538 18.0568 23.7911 18.073ZM17.4023 19.4196L17.4474 19.3895C18.1081 19.5391 18.7351 19.7489 19.3178 20.0324C18.8269 20.5848 18.1985 21.0647 17.6168 21.4685C17.2648 21.6772 16.9111 21.904 16.5429 22.0823L15.8853 21.7981L15.9304 21.6946C16.4831 20.9619 16.9737 20.2128 17.4023 19.4196ZM14.3824 18.9704C15.2566 18.9868 16.1304 19.0763 16.9414 19.27L16.9575 19.3154C16.5292 20.1226 15.9916 20.9024 15.4103 21.6341C15.1483 21.6649 14.9043 21.5614 14.644 21.5453L14.3821 21.5146C14.3522 20.6316 14.336 19.8534 14.3824 18.9704ZM11.4261 19.2396C12.223 19.0899 13.05 18.9704 13.9077 18.9704L13.9235 21.5019C13.6011 21.5744 13.2487 21.5744 12.9421 21.6512C12.3137 20.9161 11.7933 20.1226 11.3495 19.299L11.4261 19.2396ZM8.95761 20.0485C9.55678 19.7632 10.1841 19.5525 10.827 19.3892L10.8892 19.4049C11.3323 20.2281 11.8847 21.0056 12.4361 21.7838C12.2233 21.9044 11.9614 21.9764 11.7475 22.098C10.7112 21.5893 9.76826 20.9113 8.95796 20.0922V20.0485H8.95761ZM10.9352 22.607C9.64788 22.2767 8.4516 21.7083 7.34849 20.9315V20.885C7.71631 20.6626 8.0855 20.4225 8.48254 20.2561C9.35671 21.1115 10.2601 21.7551 11.2408 22.3672C11.1645 22.4571 11.0422 22.5472 10.9352 22.607ZM16.6199 22.8004C14.996 23.1467 13.1869 23.1601 11.5633 22.7717C11.5324 22.6972 11.6399 22.6811 11.6857 22.6374C13.1109 21.7236 15.3319 21.7236 16.7279 22.7102C16.7733 22.8004 16.6509 22.7717 16.6199 22.8004ZM18.0916 22.3829L17.3714 22.6067C17.2483 22.5469 17.1418 22.4571 17.0335 22.3669L17.0644 22.3211C18.0455 21.7547 18.9338 21.0644 19.777 20.2415C20.1909 20.4058 20.5897 20.6316 20.9585 20.8847C20.0995 21.5614 19.1029 22.0082 18.0916 22.3829ZM4.43756 5.42744C4.8166 4.90618 5.23123 4.41141 5.67852 3.94662C6.07556 3.57258 6.44475 3.21356 6.87445 2.94301C7.2732 3.19716 7.71699 3.40895 8.09994 3.64739C7.62521 4.2281 7.13467 4.81428 6.78232 5.44111C6.88889 5.48791 7.08895 5.47322 7.24261 5.44111C7.62521 4.8884 8.03772 4.33502 8.52998 3.84073C9.18724 4.08087 9.83179 4.33434 10.5069 4.5147L10.5664 4.57414L10.1848 5.44111C10.354 5.47322 10.4612 5.4575 10.6286 5.44111C10.7661 5.18833 10.8727 4.9048 11.026 4.64895C11.916 4.84434 12.851 4.94853 13.8011 4.97756C13.9228 5.0838 13.8314 5.3072 13.8775 5.44111H14.291C14.336 5.29422 14.2755 5.12752 14.336 4.9943C15.2257 4.94784 16.16 4.858 17.0211 4.64826L17.0957 4.66398L17.5096 5.44042C17.6478 5.44042 17.8313 5.47254 17.9386 5.40968L17.5546 4.54408L17.5866 4.51402C18.2903 4.33434 18.9503 4.06516 19.6244 3.79632C20.1008 4.28993 20.5439 4.87337 20.9437 5.44008C21.1115 5.44008 21.2803 5.45648 21.403 5.40934C21.2137 5.07526 20.993 4.7598 20.7437 4.46722C20.5413 4.18064 20.3155 3.91112 20.0685 3.66139V3.58385L21.1414 2.97137L21.2961 2.91159C22.2291 3.61335 23.0456 4.45618 23.7158 5.40934C23.8997 5.40934 24.0533 5.47219 24.207 5.3967C22.1513 2.34659 18.7653 0.384114 15.1047 0.101614L15.0885 0.130649L15.0572 0.101614C14.644 0.0575476 14.1363 0.0401262 13.6925 0.0841921C13.5244 0.0712114 13.3257 0.0841921 13.126 0.101614C9.44884 0.384114 6.06249 2.25572 3.94667 5.44179C4.09999 5.42744 4.2839 5.48825 4.43756 5.42744ZM10.7981 4.11264L10.7369 4.12562C10.1078 3.96268 9.49422 3.76626 8.91189 3.5128L8.94146 3.42296C9.78435 2.63011 10.673 1.97117 11.6537 1.46356C11.8847 1.5534 12.1143 1.62752 12.344 1.73376L12.2989 1.85059C11.7156 2.57067 11.257 3.34712 10.7981 4.11264ZM13.8465 4.51538C13.4185 4.57516 13.0353 4.50206 12.6045 4.46892C12.1927 4.4088 11.6705 4.36542 11.257 4.22878C11.7015 3.40963 12.2233 2.61508 12.851 1.88372L13.8321 2.0166C13.8775 2.79339 13.8465 3.69179 13.8465 4.51538ZM14.3212 4.53144C14.291 3.73586 14.3068 2.8542 14.3212 2.03095C14.6289 1.98723 14.9644 1.94077 15.2717 1.8967C15.8692 2.64377 16.4529 3.40963 16.8516 4.22878C16.0231 4.42799 15.1737 4.52958 14.3212 4.53144ZM19.2112 3.48239C18.6124 3.73552 17.9988 3.97532 17.3408 4.11264C16.8661 3.31945 16.3453 2.52661 15.7612 1.76041C15.9761 1.64324 16.238 1.5534 16.4673 1.43418C17.4652 1.92745 18.4295 2.63011 19.2408 3.4356L19.2112 3.48239ZM17.2483 0.923836C18.5357 1.25382 19.7464 1.82155 20.8499 2.59971L20.8193 2.65949L19.7629 3.24225H19.6849C18.874 2.43711 17.9242 1.73376 16.9575 1.17867C16.9881 1.0738 17.1421 0.998304 17.2483 0.923836ZM16.6361 0.773534V0.805302C15.302 1.76041 13.1418 1.85059 11.7328 0.967561C11.6537 0.907781 11.5024 0.878746 11.4859 0.773875C13.1112 0.401535 15.0256 0.371475 16.6361 0.773534ZM7.28764 2.63011C8.25394 1.92745 9.32612 1.40378 10.4605 1.04442C10.5069 0.997621 10.5365 0.953555 10.597 0.953555V0.984299C10.7194 1.01368 10.8118 0.878062 10.9187 0.966877C11.0112 1.04442 11.1195 1.10352 11.1951 1.17798C10.2457 1.76041 9.31031 2.45009 8.45195 3.28632C8.03806 3.13943 7.65649 2.91364 7.2873 2.65949L7.28764 2.63011ZM13.8623 14.5993C12.422 14.9891 10.8579 14.6919 9.81632 13.6128C9.69428 13.4632 9.61694 13.2848 9.49387 13.1359L7.42583 13.1503C7.39318 14.3619 7.37874 15.7539 7.42583 16.9515L9.7235 16.9369L9.7541 16.2181C10.0157 16.3377 10.2766 16.487 10.5365 16.6212C12.1301 17.2805 14.1817 17.4301 15.7606 16.6212C16.9108 15.9944 17.524 14.7827 17.3549 13.4782C17.1871 12.2078 15.9606 11.0549 14.7203 10.7417L11.0109 9.67827L10.7366 9.543C10.6138 9.43915 10.5368 9.30525 10.5667 9.13923C10.8579 8.64665 11.533 8.79627 12.0387 8.80959C13.1112 8.95955 14.2143 9.31857 14.8431 10.2918C15.5165 10.2918 16.2978 10.3048 17.0328 10.2761C17.0641 9.04939 17.0208 7.97268 17.0026 6.73029C16.313 6.71458 15.4697 6.71458 14.7812 6.74601C14.7503 6.92398 14.8108 7.17744 14.7341 7.35781L14.0297 6.98342C12.3433 6.28041 9.98304 6.20697 8.45126 7.29939C7.45471 8.0164 7.14911 9.30456 7.40968 10.4414C7.60802 11.5171 8.64995 12.311 9.6465 12.684C11.0102 13.1622 12.4347 13.5086 13.8163 13.9718C13.9531 14.0326 14.1367 14.1682 14.1071 14.3325C14.1078 14.4654 13.9689 14.5423 13.8623 14.5993Z" fill="white" fill-opacity="0.5"/>
</g>
<defs>
<clipPath id="clip0_0_107">
<rect width="29" height="23.4231" fill="white" transform="translate(0 0.0585938)"/>
</clipPath>
</defs>
</svg>
