<svg width="15" height="14" viewBox="0 0 15 14" fill="none" xmlns="http://www.w3.org/2000/svg">
<g clip-path="url(#clip0_0_644)">
<path fill-rule="evenodd" clip-rule="evenodd" d="M7.43335 13.9322H3.4879C2.72181 13.9417 2.07667 13.4242 1.87999 12.688C1.30861 10.5387 0.737539 8.39114 0.166085 6.2417C-0.222479 5.1656 0.576748 4.02759 1.71181 4.02759H7.43335H13.1548C14.2898 4.02759 15.0891 5.1656 14.7006 6.2417C14.129 8.39114 13.5581 10.5387 12.9866 12.688C12.79 13.4242 12.1447 13.9417 11.3788 13.9322H7.43343H7.43335ZM7.43335 8.97989H10.3924C10.3924 10.6209 9.0675 11.9514 7.43335 11.9514C5.79916 11.9514 4.47421 10.6209 4.47421 8.97989H7.43335Z" fill="white"/>
<path fill-rule="evenodd" clip-rule="evenodd" d="M4.47481 2.04758H6.44743C6.44743 0.95358 5.56423 0.0666504 4.47481 0.0666504C3.3854 0.0666504 2.5022 0.95358 2.5022 2.04758H4.47481Z" fill="white"/>
<path fill-rule="evenodd" clip-rule="evenodd" d="M10.3928 2.04758H12.3654C12.3654 0.95358 11.4822 0.0666504 10.3928 0.0666504C9.30339 0.0666504 8.42017 0.95358 8.42017 2.04758H10.3928Z" fill="white"/>
</g>
<defs>
<clipPath id="clip0_0_644">
<rect width="14.7333" height="13.8667" fill="white" transform="translate(0.0666504 0.0666504)"/>
</clipPath>
</defs>
</svg>
