<svg width="16" height="16" viewBox="0 0 16 16" fill="none" xmlns="http://www.w3.org/2000/svg">
<path d="M7.99935 1.33984C5.42868 1.33984 3.33789 3.43194 3.33789 6.0026C3.33789 8.99127 7.31569 13.8461 7.48503 14.0508L7.99935 14.6745L8.51367 14.0508C8.68301 13.8454 12.6608 8.99127 12.6608 6.0026C12.6608 3.43127 10.57 1.33984 7.99935 1.33984ZM7.99935 2.67318C9.83468 2.67318 11.3275 4.16727 11.3275 6.0026C11.3275 7.80594 9.25135 10.9074 7.99935 12.5508C6.74735 10.9088 4.67123 7.8086 4.67123 6.0026C4.67123 4.16727 6.16402 2.67318 7.99935 2.67318ZM7.99935 4.33333C7.07868 4.33333 6.33268 5.07933 6.33268 6C6.33268 6.92067 7.07868 7.66667 7.99935 7.66667C8.92002 7.66667 9.66602 6.92067 9.66602 6C9.66602 5.07933 8.92002 4.33333 7.99935 4.33333Z" fill="#1D3448"/>
</svg>
