<svg width="168" height="35" viewBox="0 0 168 35" fill="none" xmlns="http://www.w3.org/2000/svg">
<g clip-path="url(#clip0_0_167)">
<path d="M3.03877 9.85244V16.9168H8.70791V24.8205C8.70791 26.8838 6.91209 27.4433 5.01076 27.4433C3.60228 27.4433 1.94737 27.0936 0.750092 26.5689V33.7032C2.2993 34.3327 4.72891 34.7524 7.1587 34.7524C11.9475 34.7524 16.8419 32.7241 16.8419 25.8347V9.85263H3.03896L3.03877 9.85244ZM73.0751 9.85244V34.3325H83.709C92.5472 34.3325 96.491 29.2617 96.491 22.0926C96.491 14.9233 92.5472 9.85244 83.709 9.85244H73.0751ZM88.1458 22.0926C88.1458 26.0792 86.3852 27.5481 83.4978 27.5481H81.2091V16.6369H83.4978C86.385 16.6369 88.1458 18.1055 88.1458 22.0924V22.0926ZM104.238 34.3325L105.329 31.0803H113.85L114.907 34.3325H123.146L113.956 9.85244H105.223L95.9979 34.3325H104.238ZM108.921 20.0293C109.167 19.1199 109.413 18.1407 109.59 16.8818C109.766 18.1407 110.012 19.1199 110.294 20.0293L112.019 25.24H107.195L108.921 20.0293ZM19.3418 22.0926C19.3418 29.1219 23.8136 34.8922 32.6869 34.8922C41.5603 34.8922 46.0322 29.1219 46.0322 22.0926C46.0322 15.0632 41.5603 9.29297 32.6869 9.29297C23.8136 9.29297 19.3418 15.0632 19.3418 22.0926ZM37.6872 22.0926C37.6872 25.4498 35.8561 27.5831 32.6871 27.5831C29.518 27.5831 27.6869 25.45 27.6869 22.0926C27.6869 18.7354 29.518 16.6021 32.6871 16.6021C35.8561 16.6021 37.6872 18.7354 37.6872 22.0926ZM61.9833 34.3325V25.9743L71.385 9.85244H62.1946L57.9692 19.1199L53.7438 9.85244H44.5534L53.9197 25.9743V34.3325H61.9833Z" fill="white"/>
<path fill-rule="evenodd" clip-rule="evenodd" d="M149.541 34.3297H139.681C137.766 34.3533 136.154 33.0742 135.663 31.2547C134.235 25.9423 132.808 20.6345 131.379 15.322C130.408 12.6623 132.406 9.84961 135.242 9.84961H149.541H163.839C166.675 9.84961 168.673 12.6623 167.702 15.322C166.274 20.6345 164.847 25.9423 163.419 31.2547C162.927 33.0742 161.315 34.3533 159.401 34.3297H149.541H149.541ZM149.541 22.0897H156.935C156.935 26.1456 153.625 29.434 149.541 29.434C145.457 29.434 142.146 26.1456 142.146 22.0897H149.541Z" fill="white"/>
<path fill-rule="evenodd" clip-rule="evenodd" d="M142.147 4.95464H147.076C147.076 2.25071 144.869 0.0585938 142.147 0.0585938C139.424 0.0585938 137.217 2.25071 137.217 4.95464H142.147Z" fill="white"/>
<path fill-rule="evenodd" clip-rule="evenodd" d="M156.936 4.95464H161.865C161.865 2.25071 159.658 0.0585938 156.936 0.0585938C154.213 0.0585938 152.006 2.25071 152.006 4.95464H156.936Z" fill="white"/>
</g>
<defs>
<clipPath id="clip0_0_167">
<rect width="167.2" height="34.8333" fill="white" transform="translate(0.75 0.0585938)"/>
</clipPath>
</defs>
</svg>
