<svg width="100" height="34" viewBox="0 0 100 34" fill="none" xmlns="http://www.w3.org/2000/svg">
<g clip-path="url(#clip0_0_670)">
<path fill-rule="evenodd" clip-rule="evenodd" d="M31.0857 8.29586C29.6706 5.86713 27.7025 3.83304 25.3664 2.38703C22.9155 0.870338 20.0559 0 17 0C13.9442 0 11.0845 0.870146 8.63379 2.38703C6.29749 3.83293 4.32964 5.86713 2.91431 8.29575C5.48482 9.22965 7.52493 11.3393 8.46552 14C8.9267 12.6957 9.65078 11.5259 10.5705 10.5619C12.2177 8.83531 14.4907 7.76766 17 7.76766C19.5101 7.76766 21.7839 8.83599 23.4311 10.5635C24.3498 11.5271 25.0735 12.6961 25.5344 13.9992C26.477 11.3303 28.5192 9.23024 31.0857 8.29586Z" fill="#B1B3B3"/>
<path fill-rule="evenodd" clip-rule="evenodd" d="M25.2548 21.4548C24.8274 22.2301 24.2948 22.9382 23.6765 23.5599C21.976 25.2687 19.6267 26.3256 17.0324 26.3256C14.4374 26.3256 12.0882 25.2684 10.3878 23.5591C8.68717 21.8499 7.63535 19.4884 7.63535 16.8805C7.63535 13.2741 5.31958 10.1009 1.90638 9C1.32197 10.1306 0.859573 11.3334 0.536701 12.5912C0.186378 13.9558 0 15.3931 0 16.8806C0 21.608 1.90648 25.888 4.98867 28.986C8.07087 32.0838 12.329 34 17.0324 34C19.2624 34 21.377 33.1056 22.934 31.4996C24.378 30.0106 25.2658 27.9777 25.2571 25.7377L25.2548 21.4548Z" fill="#003D64"/>
<path fill-rule="evenodd" clip-rule="evenodd" d="M34 16.9376C34 15.4393 33.8158 13.9916 33.4699 12.6171C33.1515 11.3504 32.695 10.1387 32.1175 9C28.7612 10.0936 26.4669 13.3027 26.4587 16.9159V25.8566C26.4685 28.5953 25.3214 31.1945 23.3143 33C25.5265 32.1113 27.5109 30.7561 29.1518 29.0521C32.1494 25.9387 33.9999 21.6606 33.9999 16.9376H34Z" fill="#D52023"/>
<path fill-rule="evenodd" clip-rule="evenodd" d="M50.4362 26.4477C52.6824 26.4477 54.5274 25.9334 55.9447 24.8783C57.362 23.8237 58.0838 22.4344 58.0838 20.6593C58.0838 19.1157 57.5756 17.9064 56.5596 17.0576C55.5434 16.2086 54.1263 15.4882 52.3347 14.9222C51.5593 14.6908 50.3291 14.382 49.7678 14.2019L48.912 13.919C48.3507 13.6875 48.1366 13.4301 48.1366 13.0956C48.1366 12.2982 48.9655 11.9123 50.5967 11.9123C51.6663 11.9123 52.7625 12.0922 53.9124 12.4268C55.0623 12.7612 56.0515 13.1729 56.8805 13.6617V9.21091C54.9283 8.20757 52.8159 7.71875 50.543 7.71875C46.0508 7.71875 43.1895 9.64814 43.1895 13.1215C43.1895 14.1762 43.5104 15.1282 43.8581 15.7713C44.2591 16.4144 45.1417 17.0318 45.6764 17.4178C45.9707 17.5979 46.3717 17.778 46.9064 17.9838L48.1363 18.4468L49.5002 18.8327L51.1848 19.3216C51.5056 19.4245 52.1741 19.6047 52.388 19.7847C52.8158 20.0676 53.11 20.2991 53.11 20.8394C53.11 21.7913 52.1475 22.2545 50.2488 22.2545C49.0454 22.2545 47.7621 22.0229 46.3983 21.5342C45.0347 21.0452 43.9649 20.4793 43.1895 19.7847V24.5185C45.1416 25.8048 47.5481 26.4478 50.436 26.4478L50.4362 26.4477Z" fill="#003D64"/>
<path fill-rule="evenodd" clip-rule="evenodd" d="M92.7 26.0927C94.7055 26.0927 96.3367 25.6296 97.54 24.6776C98.7701 23.7257 99.3851 22.4651 99.3851 20.9215C99.3851 19.6097 99.0107 18.5547 98.2887 17.7058C97.5668 16.8568 96.7379 16.3421 95.8288 16.1364C96.9785 15.622 98.0213 14.387 98.0213 12.6376C98.0213 9.67903 95.6147 8.08398 92.1922 8.08398H83.0742V26.0927H92.7003H92.7ZM87.8869 18.4004H91.7641C93.1814 18.4004 94.1172 19.1208 94.1172 20.3298C94.1172 21.539 93.2349 22.2337 91.7641 22.2337H87.8869V18.4004ZM87.8869 11.8402H91.4701C92.6467 11.8402 93.3953 12.4319 93.3953 13.4353C93.3953 14.3871 92.6467 14.9787 91.4701 14.9787H87.8869V11.8402Z" fill="#003D64"/>
<path fill-rule="evenodd" clip-rule="evenodd" d="M76.1807 30.7417C77.2839 30.7417 78.2795 30.5345 79.1944 30.1463V26.2883C78.5219 26.651 77.7682 26.8321 76.961 26.8321C75.9116 26.8321 75.0505 26.4697 74.4046 25.7188C76.1536 24.968 77.5263 23.8029 78.5488 22.2753C79.5711 20.7478 80.0827 19.0389 80.0827 17.1489C80.0827 14.534 79.1407 12.3074 77.2571 10.4691C75.3735 8.63074 73.0052 7.72461 70.1528 7.72461C67.3003 7.72461 64.9322 8.63084 63.0484 10.4691C61.1647 12.3074 60.2227 14.5339 60.2227 17.1489C60.2227 19.6085 61.0571 21.7574 62.7524 23.5439C64.4478 25.3305 66.6005 26.3144 69.211 26.5215C71.8212 29.6284 73.9202 30.7417 76.1807 30.7417ZM66.6004 20.8255C65.6586 19.8674 65.201 18.6249 65.201 17.149C65.201 15.6731 65.6586 14.4304 66.6004 13.4726C67.5423 12.5146 68.7265 12.0228 70.1526 12.0228C71.5789 12.0228 72.736 12.5147 73.6779 13.4726C74.6198 14.4306 75.1042 15.6731 75.1042 17.149C75.1042 18.6249 74.6198 19.8676 73.6779 20.8255C72.7358 21.7835 71.5788 22.2753 70.1526 22.2753C68.7263 22.2753 67.5422 21.7833 66.6004 20.8255Z" fill="#003D64"/>
</g>
<defs>
<clipPath id="clip0_0_670">
<rect width="99.3846" height="34" fill="white"/>
</clipPath>
</defs>
</svg>
