<svg width="16" height="16" viewBox="0 0 16 16" fill="none" xmlns="http://www.w3.org/2000/svg">
<g clip-path="url(#clip0_0_622)">
<path fill-rule="evenodd" clip-rule="evenodd" d="M5.44735 10.5523C8.01068 13.1157 10.386 13.3963 11.0833 13.4223C11.926 13.453 12.786 12.765 13.158 12.0603C12.5647 11.3643 11.792 10.8243 10.9453 10.239C10.4467 10.7377 9.83202 11.6643 9.01202 11.3323C8.54602 11.145 7.39535 10.615 6.39002 9.60899C5.38402 8.60366 4.85468 7.45299 4.66602 6.98766C4.33402 6.16699 5.26335 5.55032 5.76268 5.05099C5.17735 4.19099 4.64668 3.39832 3.95202 2.83499C3.23735 3.20832 2.54535 4.06166 2.57668 4.91566C2.60268 5.61299 2.88335 7.98832 5.44735 10.5523ZM11.034 14.7543C10.074 14.719 7.35335 14.3437 4.50402 11.4943C1.65535 8.64566 1.28002 5.92566 1.24402 4.96499C1.19068 3.50099 2.31202 2.07899 3.60735 1.52366C3.76333 1.4563 3.93415 1.43066 4.10304 1.44924C4.27192 1.46782 4.43308 1.52999 4.57068 1.62966C5.64268 2.41166 6.38202 3.59632 7.01735 4.52432C7.14951 4.71729 7.21006 4.95039 7.18851 5.18328C7.16697 5.41618 7.06468 5.63421 6.89935 5.79966L5.99535 6.70432C6.20535 7.16766 6.63268 7.96632 7.33268 8.66632C8.03268 9.36632 8.83135 9.79366 9.29535 10.0037L10.1987 9.09966C10.3648 8.93398 10.5837 8.83183 10.8174 8.81099C11.051 8.79016 11.2846 8.85197 11.4773 8.98566C12.424 9.64166 13.536 10.3703 14.3467 11.4083C14.4544 11.5469 14.523 11.7119 14.5451 11.8861C14.5673 12.0602 14.5423 12.2371 14.4727 12.3983C13.9147 13.7003 12.5027 14.809 11.034 14.755V14.7543Z" fill="#1D3448"/>
</g>
<defs>
<clipPath id="clip0_0_622">
<rect width="16" height="16" fill="white"/>
</clipPath>
</defs>
</svg>
