<svg width="59" height="59" viewBox="0 0 59 59" fill="none" xmlns="http://www.w3.org/2000/svg">
<path d="M29.4998 0.359375C13.3741 0.359375 0.299805 13.4337 0.299805 29.5594C0.299805 45.6851 13.3741 58.7594 29.4998 58.7594C45.6255 58.7594 58.6998 45.6851 58.6998 29.5594C58.6998 13.4337 45.6255 0.359375 29.4998 0.359375ZM29.4998 47.8094C27.485 47.8094 25.8498 46.1742 25.8498 44.1594C25.8498 42.1446 27.485 40.5094 29.4998 40.5094C31.5146 40.5094 33.1498 42.1446 33.1498 44.1594C33.1498 46.1742 31.5146 47.8094 29.4998 47.8094ZM34.5319 30.776C32.9211 32.2628 31.9331 33.2386 31.9331 34.426H27.0665C27.0665 31.0461 29.3757 28.9145 31.2299 27.199C33.1741 25.4032 34.3665 24.2036 34.3665 22.2594C34.3665 19.5754 32.1838 17.3927 29.4998 17.3927C26.8158 17.3927 24.6331 19.5754 24.6331 22.2594H19.7665C19.7665 16.8914 24.1319 12.526 29.4998 12.526C34.8677 12.526 39.2331 16.8914 39.2331 22.2594C39.2331 26.4325 36.627 28.8391 34.5319 30.776Z" fill="#D52023"/>
</svg>
