<svg width="36" height="37" viewBox="0 0 36 37" fill="none" xmlns="http://www.w3.org/2000/svg">
<g clip-path="url(#clip0_0_378)">
<path d="M17.609 33.1702C8.85587 33.1702 1.76003 26.074 1.76003 17.3204C1.76003 8.56687 8.85587 1.4707 17.609 1.4707C26.3622 1.4707 33.458 8.56687 33.458 17.3204C33.458 26.074 26.3622 33.1702 17.609 33.1702Z" fill="#0035F2"/>
<path d="M1.23664 17.3204C1.23664 26.363 8.56678 33.6935 17.609 33.6935C26.6513 33.6935 33.9814 26.363 33.9814 17.3204C33.9814 8.27783 26.6513 0.947315 17.609 0.947315C8.56679 0.947315 1.23664 8.27783 1.23664 17.3204Z" stroke="#9593A7" stroke-opacity="0.2" stroke-width="1.04678"/>
<path d="M17.609 33.1702C8.85587 33.1702 1.76003 26.074 1.76003 17.3204C1.76003 8.56687 8.85587 1.4707 17.609 1.4707C26.3622 1.4707 33.458 8.56687 33.458 17.3204C33.458 26.074 26.3622 33.1702 17.609 33.1702Z" fill="#0035F2"/>
<path d="M32.459 11.7751C30.2104 5.75749 24.4095 1.47278 17.6079 1.47278C10.8062 1.47278 5.00529 5.75748 2.75674 11.7751L32.459 11.7751Z" fill="white"/>
<path d="M2.75684 22.8714C5.00539 28.889 10.8063 33.1737 17.608 33.1737C24.4096 33.1737 30.2105 28.889 32.4591 22.8714L2.75684 22.8714Z" fill="#F2002C"/>
</g>
<defs>
<clipPath id="clip0_0_378">
<rect width="35.9981" height="36" fill="white" transform="translate(0 0.0585938)"/>
</clipPath>
</defs>
</svg>
