<svg width="220" height="59" viewBox="0 0 220 59" fill="none" xmlns="http://www.w3.org/2000/svg">
<g clip-path="url(#clip0_0_429)">
<path d="M0 43.448V5.89162L7.60949 13.2556V36.9432L19.0236 43.448V24.5471L26.5105 32.1567V58.667L0 43.448Z" fill="#D52023"/>
<path d="M62.1029 43.448V5.89162L54.4934 13.2556V36.9432L43.0793 43.448V24.5471L35.5924 32.1567V58.667L62.1029 43.448Z" fill="#D52023"/>
<path d="M12.6412 9.81868L3.31348 0H58.789L49.4613 9.81868H36.6971V22.4602L31.0512 27.9832L25.4056 22.4602V9.81868H12.6412Z" fill="#D52023"/>
<path d="M75.4992 11.8239H78.9927V20.8646H82.7669V11.8239H86.2954V8.57628H75.4992V11.8239Z" fill="#D52023"/>
<path d="M88.8503 20.8649L89.7457 18.5652H93.748L94.6258 20.8649H98.6809L93.6076 8.50641H90.0089L84.9532 20.8649H88.8503ZM91.7468 12.8248L92.6422 15.7389H90.8339L91.7468 12.8248Z" fill="#D52023"/>
<path d="M104.795 20.8646C106.813 20.8646 108.446 20.2852 109.727 19.1442C111.009 18.0031 111.641 16.5286 111.641 14.7204C111.641 12.9123 111.009 11.4377 109.727 10.2966C108.446 9.15558 106.813 8.57628 104.795 8.57628H99.6159V20.8646H104.795ZM103.39 11.8239H104.549C106.603 11.8239 107.744 12.8421 107.744 14.7204C107.744 16.5987 106.603 17.6169 104.549 17.6169H103.39V11.8239Z" fill="#D52023"/>
<path d="M119.671 20.8646C121.022 20.8646 122.111 20.531 122.936 19.8814C123.761 19.232 124.182 18.3717 124.182 17.3009C124.182 16.4232 123.919 15.6859 123.41 15.1066C122.901 14.5097 122.374 14.1587 121.847 14.0533C122.181 13.8953 122.497 13.6145 122.831 13.2107C123.164 12.8069 123.322 12.2979 123.322 11.7186C123.322 10.6828 122.953 9.91044 122.216 9.38379C121.479 8.83959 120.548 8.57628 119.407 8.57628H113.176V20.8646H119.671ZM116.95 15.7912H118.933C119.583 15.7912 120.057 16.2125 120.057 16.827C120.057 17.4414 119.618 17.8276 118.933 17.8276H116.95V15.7912ZM116.95 11.5079H118.863C119.372 11.5079 119.758 11.859 119.758 12.3681C119.758 12.8069 119.372 13.158 118.863 13.158H116.95V11.5079Z" fill="#D52023"/>
<path d="M129.346 20.8646V8.57628H125.572V20.8646H129.346Z" fill="#D52023"/>
<path d="M139.565 16.0546C140.969 15.3524 141.812 14.0709 141.812 12.5261C141.812 11.385 141.391 10.4371 140.548 9.69978C139.706 8.94493 138.582 8.57628 137.195 8.57628H131.262V20.8646H135.036V16.4758H135.563L138.828 20.8646H143.234L139.565 16.0546ZM135.036 13.7198V11.7361H136.756C137.458 11.7361 137.933 12.1048 137.933 12.7192C137.933 13.3336 137.458 13.7198 136.756 13.7198H135.036Z" fill="#D52023"/>
<path d="M147.756 20.8646V15.563L151.899 20.8646H156.533L151.302 14.2815L155.656 8.57628H151.214L147.756 13.158V8.57628H143.982V20.8646H147.756Z" fill="#D52023"/>
<path d="M160.026 16.8458C159.517 16.284 159.253 15.5818 159.253 14.7216C159.253 13.8614 159.517 13.1593 160.026 12.6151C160.535 12.0533 161.184 11.7724 161.974 11.7724C162.764 11.7724 163.413 12.0533 163.923 12.6151C164.432 13.1593 164.696 13.8614 164.696 14.7216C164.696 15.5818 164.432 16.284 163.923 16.8458C163.413 17.3899 162.764 17.6707 161.974 17.6707C161.184 17.6707 160.535 17.3899 160.026 16.8458ZM155.391 14.7216C155.391 16.477 156.006 17.9867 157.252 19.2332C158.499 20.4796 160.079 21.1115 161.974 21.1115C163.871 21.1115 165.432 20.4972 166.679 19.2507C167.926 18.0043 168.54 16.4946 168.54 14.7216C168.54 12.9486 167.926 11.4565 166.679 10.2101C165.432 8.96371 163.871 8.33174 161.974 8.33174C160.079 8.33174 158.499 8.96371 157.252 10.2101C156.006 11.4565 155.391 12.9486 155.391 14.7216Z" fill="#D52023"/>
<path d="M178.377 16.0546C179.782 15.3524 180.624 14.0709 180.624 12.5261C180.624 11.385 180.202 10.4371 179.36 9.69978C178.517 8.94493 177.393 8.57628 176.006 8.57628H170.074V20.8646H173.848V16.4758H174.375L177.639 20.8646H182.045L178.377 16.0546ZM173.848 13.7198V11.7361H175.568C176.27 11.7361 176.744 12.1048 176.744 12.7192C176.744 13.3336 176.27 13.7198 175.568 13.7198H173.848Z" fill="#D52023"/>
<path d="M192.151 20.8646V17.6169H186.568V8.57628H182.794V20.8646H192.151Z" fill="#D52023"/>
<path d="M196.424 20.8649L197.319 18.5652H201.323L202.2 20.8649H206.256L201.181 8.50641H197.583L192.528 20.8649H196.424ZM199.322 12.8248L200.217 15.7389H198.408L199.322 12.8248Z" fill="#D52023"/>
<path d="M215.493 16.0546C216.897 15.3524 217.74 14.0709 217.74 12.5261C217.74 11.385 217.318 10.4371 216.475 9.69978C215.633 8.94493 214.51 8.57628 213.123 8.57628H207.19V20.8646H210.964V16.4758H211.49L214.754 20.8646H219.161L215.493 16.0546ZM210.964 13.7198V11.7361H212.683C213.386 11.7361 213.86 12.1048 213.86 12.7192C213.86 13.3336 213.386 13.7198 212.683 13.7198H210.964Z" fill="#D52023"/>
<path d="M79.6947 39.7655V32.8841L81.5029 35.8158H83.5391L85.2771 32.8841V39.7655H88.8935V27.4773H85.1719L82.4683 31.8485L79.7825 27.4773H76.0433V39.7655H79.6947Z" fill="#D52023"/>
<path d="M93.7367 39.7641L94.632 37.4646H98.6344L99.5121 39.7641H103.567L98.4939 27.4057H94.8954L89.8396 39.7641H93.7367ZM96.6332 31.7242L97.5286 34.6381H95.7203L96.6332 31.7242Z" fill="#D52023"/>
<path d="M108.276 39.7655V34.464L112.419 39.7655H117.053L111.822 33.1825L116.175 27.4773H111.734L108.276 32.059V27.4773H104.501V39.7655H108.276Z" fill="#D52023"/>
<path d="M117.192 30.7248H120.685V39.7655H124.46V30.7248H127.988V27.4773H117.192V30.7248Z" fill="#D52023"/>
<path d="M130.543 39.7641L131.438 37.4646H135.441L136.319 39.7641H140.374L135.3 27.4057H131.702L126.646 39.7641H130.543ZM133.44 31.7242L134.335 34.6381H132.527L133.44 31.7242Z" fill="#D52023"/>
<path d="M147.803 39.7655C149.155 39.7655 150.243 39.4319 151.068 38.7825C151.893 38.133 152.314 37.2728 152.314 36.202C152.314 35.3243 152.051 34.5869 151.542 34.0075C151.033 33.4108 150.506 33.0596 149.98 32.9543C150.313 32.7964 150.629 32.5155 150.963 32.1116C151.296 31.708 151.454 31.1989 151.454 30.6195C151.454 29.5839 151.086 28.8115 150.348 28.2848C149.611 27.7406 148.681 27.4773 147.54 27.4773H141.308V39.7655H147.803ZM145.082 34.6923H147.066C147.715 34.6923 148.189 35.1136 148.189 35.7279C148.189 36.3423 147.75 36.7285 147.066 36.7285H145.082V34.6923ZM145.082 30.4088H146.996C147.504 30.4088 147.891 30.76 147.891 31.2691C147.891 31.708 147.504 32.059 146.996 32.059H145.082V30.4088Z" fill="#D52023"/>
<path d="M157.477 39.7655V27.4773H153.703V39.7655H157.477Z" fill="#D52023"/>
</g>
<defs>
<clipPath id="clip0_0_429">
<rect width="220" height="58.6667" fill="white"/>
</clipPath>
</defs>
</svg>
