<svg width="211" height="73" viewBox="0 0 211 73" fill="none" xmlns="http://www.w3.org/2000/svg">
<g clip-path="url(#clip0_0_75)">
<path fill-rule="evenodd" clip-rule="evenodd" d="M69.5353 17.294C66.3181 12.2481 61.844 8.02209 56.533 5.01787C50.961 1.86681 44.4601 0.0585938 37.5128 0.0585938C30.5657 0.0585938 24.0645 1.86641 18.493 5.01787C13.1816 8.02189 8.70788 12.2481 5.49023 17.2938C11.3341 19.2341 15.9721 23.6172 18.1104 29.1448C19.1588 26.4351 20.805 24.0047 22.896 22.002C26.6407 18.4148 31.8082 16.1967 37.5128 16.1967C43.2192 16.1967 48.3886 18.4162 52.1331 22.0052C54.2218 24.0073 55.8671 26.4359 56.9147 29.1432C59.0579 23.5984 63.7007 19.2353 69.5353 17.294Z" fill="white"/>
<path fill-rule="evenodd" clip-rule="evenodd" d="M55.623 45.677C54.6815 47.3073 53.5084 48.7965 52.1467 50.1037C48.4014 53.6971 43.2272 55.9197 37.5132 55.9197C31.798 55.9197 26.6238 53.6965 22.8787 50.1021C19.1332 46.5079 16.8166 41.5422 16.8166 36.0579C16.8166 28.4742 11.7162 21.8013 4.19874 19.4863C2.9116 21.8637 1.89318 24.3932 1.18207 27.0381C0.410492 29.9077 0 32.9301 0 36.0581C0 45.9991 4.19894 54.9994 10.9874 61.514C17.7758 68.0284 27.1542 72.0579 37.5132 72.0579C42.4249 72.0579 47.0821 70.1771 50.5116 66.7999C53.6917 63.6687 55.6472 59.394 55.628 54.6834L55.6228 45.6772L55.623 45.677Z" fill="white"/>
<path fill-rule="evenodd" clip-rule="evenodd" d="M75.0266 36.0579C75.0266 32.9299 74.6159 29.9075 73.8444 27.0379C73.1341 24.3934 72.1157 21.8635 70.8277 19.4863C63.3413 21.7695 58.2236 28.469 58.2052 36.0125V54.6782C58.2271 60.3958 55.6687 65.822 51.1914 69.5915C56.1261 67.7363 60.5525 64.9069 64.2123 61.3495C70.899 54.8497 75.0264 45.9179 75.0264 36.0579H75.0266Z" fill="white"/>
<path fill-rule="evenodd" clip-rule="evenodd" d="M107.083 56.0638C111.851 56.0638 115.768 54.9744 118.777 52.7404C121.786 50.5069 123.319 47.5649 123.319 43.8058C123.319 40.5371 122.24 37.9762 120.083 36.1786C117.926 34.3808 114.917 32.8553 111.113 31.6569C109.467 31.1665 106.855 30.5127 105.664 30.1314L103.847 29.5322C102.655 29.042 102.2 28.497 102.2 27.7886C102.2 26.1 103.96 25.2827 107.424 25.2827C109.694 25.2827 112.022 25.6639 114.463 26.3723C116.904 27.0806 119.004 27.9523 120.764 28.9874V19.5622C116.62 17.4375 112.135 16.4023 107.31 16.4023C97.7721 16.4023 91.6975 20.4881 91.6975 27.8434C91.6975 30.077 92.3786 32.0929 93.117 33.4549C93.9684 34.8168 95.842 36.1242 96.9774 36.9415C97.602 37.3228 98.4534 37.7044 99.5888 38.1401L102.2 39.1206L105.095 39.9379L108.672 40.9731C109.353 41.1909 110.772 41.5725 111.227 41.9538C112.135 42.553 112.759 43.0432 112.759 44.1873C112.759 46.203 110.716 47.1838 106.685 47.1838C104.13 47.1838 101.405 46.6934 98.5099 45.6584C95.615 44.6231 93.3438 43.4247 91.6973 41.9538V51.9782C95.8418 54.7023 100.951 56.064 107.082 56.064L107.083 56.0638Z" fill="white"/>
<path fill-rule="evenodd" clip-rule="evenodd" d="M196.807 55.3117C201.065 55.3117 204.528 54.3312 207.083 52.3153C209.694 50.2994 211 47.6301 211 44.3612C211 41.583 210.205 39.3491 208.672 37.5513C207.14 35.7535 205.38 34.6637 203.45 34.228C205.891 33.1386 208.105 30.5233 208.105 26.8186C208.105 20.5535 202.996 17.1758 195.729 17.1758H176.371V55.3117H196.808H196.807ZM186.589 39.0224H194.82C197.829 39.0224 199.816 40.5479 199.816 43.1082C199.816 45.6688 197.943 47.1397 194.82 47.1397H186.589V39.0224ZM186.589 25.1301H194.196C196.694 25.1301 198.284 26.3831 198.284 28.5078C198.284 30.5235 196.694 31.7765 194.196 31.7765H186.589V25.1301Z" fill="white"/>
<path fill-rule="evenodd" clip-rule="evenodd" d="M161.739 65.1599C164.081 65.1599 166.195 64.7213 168.138 63.899V55.7295C166.71 56.4971 165.11 56.8809 163.396 56.8809C161.168 56.8809 159.34 56.1134 157.969 54.5235C161.682 52.9333 164.596 50.4663 166.767 47.2312C168.938 43.9965 170.024 40.3777 170.024 36.3753C170.024 30.8379 168.023 26.1227 164.024 22.2297C160.025 18.3368 154.998 16.418 148.941 16.418C142.886 16.418 137.858 18.337 133.859 22.2297C129.86 26.1227 127.859 30.8377 127.859 36.3753C127.859 41.5839 129.631 46.1346 133.23 49.9177C136.83 53.7008 141.4 55.7845 146.942 56.2231C152.484 62.8025 156.94 65.1599 161.739 65.1599ZM141.4 44.161C139.4 42.1323 138.429 39.5008 138.429 36.3755C138.429 33.2503 139.4 30.6186 141.4 28.5901C143.399 26.5614 145.914 25.5201 148.941 25.5201C151.969 25.5201 154.426 26.5616 156.426 28.5901C158.425 30.6188 159.454 33.2503 159.454 36.3755C159.454 39.5008 158.425 42.1325 156.426 44.161C154.426 46.1896 151.969 47.2312 148.941 47.2312C145.913 47.2312 143.399 46.1895 141.4 44.161Z" fill="white"/>
</g>
<defs>
<clipPath id="clip0_0_75">
<rect width="211" height="72" fill="white" transform="translate(0 0.0585938)"/>
</clipPath>
</defs>
</svg>
