<svg width="36" height="37" viewBox="0 0 36 37" fill="none" xmlns="http://www.w3.org/2000/svg">
<g clip-path="url(#clip0_0_355)">
<circle cx="18.4998" cy="17.6192" r="15.5" fill="#F2F0F2"/>
<mask id="mask0_0_355" style="mask-type:alpha" maskUnits="userSpaceOnUse" x="2" y="2" width="32" height="32">
<circle cx="18.4998" cy="17.6252" r="15.5" fill="#FCFCFC"/>
</mask>
<g mask="url(#mask0_0_355)">
<rect x="8.03589" y="29.6367" width="21.3125" height="3.87499" fill="#D90026"/>
<rect x="8.03589" y="29.6367" width="21.3125" height="3.87499" fill="#D90026"/>
<rect x="3.38751" y="21.8889" width="30.6124" height="3.87499" fill="#D90026"/>
<rect x="3.38751" y="21.8889" width="30.6124" height="3.87499" fill="#D90026"/>
<rect x="3.38751" y="13.7483" width="30.6124" height="3.87499" fill="#D90026"/>
<rect x="3.38751" y="13.7483" width="30.6124" height="3.87499" fill="#D90026"/>
<rect x="3.38751" y="5.99829" width="30.6124" height="3.87499" fill="#D90026"/>
<rect x="3.38751" y="5.99829" width="30.6124" height="3.87499" fill="#D90026"/>
<rect x="2.99982" y="2.12524" width="15.8875" height="15.5" fill="#0052B5"/>
<path d="M15.787 15.1128L14.6245 15.694L15.012 14.5316L14.237 13.7566H15.3995L15.787 12.5941L16.3683 13.7566H17.337L16.562 14.5316L16.9495 15.694L15.787 15.1128Z" fill="#EFEFEF"/>
<path d="M10.3623 15.1088L9.19982 15.6901L9.58732 14.5276L8.81232 13.7526H9.97481L10.3623 12.5901L10.9436 13.7526H11.9123L11.1373 14.5276L11.5248 15.6901L10.3623 15.1088Z" fill="#EFEFEF"/>
<path d="M4.93751 15.1088L3.77501 15.6901L4.16251 14.5276L3.38751 13.7526H4.55001L4.93751 12.5901L5.51876 13.7526H6.4875L5.71251 14.5276L6.10001 15.6901L4.93751 15.1088Z" fill="#EFEFEF"/>
<path d="M15.7871 10.8432L14.6246 11.4245L15.0121 10.262L14.2371 9.48696H15.3996L15.7871 8.32446L16.3684 9.48696H17.3371L16.5621 10.262L16.9496 11.4245L15.7871 10.8432Z" fill="#EFEFEF"/>
<path d="M15.789 6.5777L14.6265 7.15895L15.014 5.99646L14.239 5.22146H15.4015L15.789 4.05896L16.3702 5.22146H17.339L16.564 5.99646L16.9515 7.15895L15.789 6.5777Z" fill="#EFEFEF"/>
<path d="M15.7891 2.31196L14.6266 2.89321L15.0141 1.73071L14.2391 0.95571H15.4016L15.7891 -0.206787L16.3703 0.95571L17.3391 0.95571L16.5641 1.73071L16.9516 2.89321L15.7891 2.31196Z" fill="#EFEFEF"/>
<path d="M10.3643 6.57954L9.20177 7.16078L9.58927 5.99829L8.81427 5.22329H9.97677L10.3643 4.06079L10.9455 5.22329H11.9143L11.1393 5.99829L11.5268 7.16078L10.3643 6.57954Z" fill="#EFEFEF"/>
<path d="M10.3623 10.8432L9.19982 11.4245L9.58732 10.262L8.81232 9.48696H9.97481L10.3623 8.32446L10.9436 9.48696H11.9123L11.1373 10.262L11.5248 11.4245L10.3623 10.8432Z" fill="#EFEFEF"/>
<path d="M4.93751 10.8393L3.77501 11.4205L4.16251 10.2581L3.38751 9.48305H4.55001L4.93751 8.32056L5.51876 9.48305H6.4875L5.71251 10.2581L6.10001 11.4205L4.93751 10.8393Z" fill="#EFEFEF"/>
</g>
<path d="M2.10578 17.67C2.10578 26.7126 9.43593 34.0431 18.4782 34.0431C27.5204 34.0431 34.8505 26.7126 34.8505 17.67C34.8505 8.62744 27.5204 1.29692 18.4782 1.29692C9.43593 1.29692 2.10579 8.62744 2.10578 17.67Z" stroke="#9593A7" stroke-opacity="0.2" stroke-width="1.04678"/>
</g>
<defs>
<clipPath id="clip0_0_355">
<rect width="35.9981" height="36" fill="white" transform="translate(0 0.0585938)"/>
</clipPath>
</defs>
</svg>
